<svg
  width="100"
  xmlns="http://www.w3.org/2000/svg"
  viewBox="0 0 215.85 237.81"
>
  <path
    d="M-264.69,349.74c5.44.81,10.87,1.78,16.34,2.4,10.06,1.15,20.13,2.24,30.23,3,2,.15,4.14-1.45,6.22-2.25-1.08-1.73-1.82-3.87-3.31-5.12-2.52-2.12-5.51-3.67-8.29-5.47-1.62-1-3.22-2.11-4.83-3.17l.35-1.39c1.77.17,3.55.24,5.29.51,3.77.59,7.51,1.64,11.29,1.8,2.76.11,6.48-.66,6-4.32-.3-2.46-2.5-6.21-4.48-6.67-6.4-1.46-13.08-1.71-19.65-2.33-1.86-.17-3.75,0-6.23-1.2l11.81-9.39-.61-1.14c-4.77,1.84-9.54,3.69-14.33,5.5-15.72,5.94-31.44,11.9-47.2,17.74-1.22.45-2.76,0-4.16,0,.24-1.38.14-2.93.75-4.12,8.3-16.32,16.7-32.58,25-48.88a10,10,0,0,0,1.3-3.75c.15-2.69.75-7.29-.27-7.73-2.77-1.16-6.29-.79-9.48-.57-1.64.11-3.2,1.21-4.92,1.91a8.34,8.34,0,0,1-.67-2c.24-9-5.63-13.26-14.06-9.83-3.71,1.51-7,4-10.94,6.29-1.61-5.75,3.48-11.17,3.14-17.61-2.86,4.33-9.51,5.06-9.72,11.91-.44,14.46-1.25,28.9-2,43.34-.14,2.72-.65,5.43-1,8.14l-1.55.63c-1.63-1.86-3.77-3.48-4.81-5.63C-327,294.6-334.43,278.8-341.9,263c-1.07-2.26-2.44-4.47-3-6.85-.31-1.43.8-3.15,1.18-4.76s1.22-3.29.88-4.7c-4.12-17.08-4.26-34.3-1.95-51.58a16.16,16.16,0,0,1,3.54-8c5.76-6.69,10.63-6.07,15.38,1.51,6,9.59,12,19.21,18,28.8.86,1.37,1.92,2.61,3.5,4.73,1-2.15,1.82-3.48,2.31-4.92,8.57-25.17,20.9-48.27,38.25-68.48,5.19-6,11.95-10,20.28-10.56,5.24-.36,8.36,2,9.22,7,1.86,11,3.21,22.07,5.38,33,1.88,9.43,4.45,18.74,7,28,1.42,5.13,5.55,8,10,10.62,7.45,4.39,14.71,9.11,22,13.77,5.94,3.8,9.09,9.68,11.14,16.12,2.46,7.75-1.62,14-6.45,18.92-9,9.26-18.85,17.73-28.36,26.52-1.23,1.14-2.51,2.22-3.77,3.32l.89,1.56c3.4-1.4,6.82-2.78,10.2-4.23,11.34-4.87,22.7-9.31,35.36-9.7,16.45-.51,27.66,7.12,34.82,21.25,12.1,23.92,4.49,54.21-19.88,67.44-10.46,5.68-21.92,4.64-32.69,2.24-14.43-3.23-28.42-8.36-42.64-12.5-9.26-2.7-18.62-5.07-27.91-7.66-2.06-.58-4-1.46-6-2.2Z"
    transform="translate(346.25 -138.21)"
  />
</svg>
